<mxfile host="app.diagrams.net" agent="Mozilla/5.0 (Macintosh; Intel Mac OS X 10_15_7) AppleWebKit/605.1.15 (KHTML, like Gecko) Version/16.5 Safari/605.1.15" version="27.0.9">
  <diagram name="Страница — 1" id="oIGkv35JSirXxDSVPZw_">
    <mxGraphModel dx="969" dy="581" grid="1" gridSize="10" guides="1" tooltips="1" connect="1" arrows="1" fold="1" page="1" pageScale="1" pageWidth="827" pageHeight="1169" math="0" shadow="0">
      <root>
        <mxCell id="0" />
        <mxCell id="1" parent="0" />
        <mxCell id="ZmkryA6pYVP38JDTjNkh-3" value="Начало" style="html=1;dashed=0;whiteSpace=wrap;shape=mxgraph.dfd.start" vertex="1" parent="1">
          <mxGeometry x="320" y="90" width="160" height="30" as="geometry" />
        </mxCell>
        <mxCell id="ZmkryA6pYVP38JDTjNkh-4" value="&lt;div&gt;N, IDs&lt;/div&gt;" style="shape=parallelogram;perimeter=parallelogramPerimeter;whiteSpace=wrap;html=1;dashed=0;" vertex="1" parent="1">
          <mxGeometry x="320" y="150" width="160" height="40" as="geometry" />
        </mxCell>
        <mxCell id="ZmkryA6pYVP38JDTjNkh-27" value="" style="endArrow=none;html=1;rounded=0;entryX=0.5;entryY=0.5;entryDx=0;entryDy=15;entryPerimeter=0;exitX=0.5;exitY=0;exitDx=0;exitDy=0;" edge="1" parent="1" source="ZmkryA6pYVP38JDTjNkh-4" target="ZmkryA6pYVP38JDTjNkh-3">
          <mxGeometry width="50" height="50" relative="1" as="geometry">
            <mxPoint x="420" y="240" as="sourcePoint" />
            <mxPoint x="470" y="190" as="targetPoint" />
          </mxGeometry>
        </mxCell>
        <mxCell id="ZmkryA6pYVP38JDTjNkh-28" value="" style="endArrow=none;html=1;rounded=0;entryX=0.5;entryY=0.5;entryDx=0;entryDy=15;entryPerimeter=0;exitX=0.5;exitY=0;exitDx=0;exitDy=0;" edge="1" parent="1" source="ZmkryA6pYVP38JDTjNkh-41">
          <mxGeometry width="50" height="50" relative="1" as="geometry">
            <mxPoint x="399.5" y="220" as="sourcePoint" />
            <mxPoint x="399.5" y="190" as="targetPoint" />
          </mxGeometry>
        </mxCell>
        <mxCell id="ZmkryA6pYVP38JDTjNkh-29" value="" style="endArrow=none;html=1;rounded=0;entryX=0.5;entryY=0.5;entryDx=0;entryDy=15;entryPerimeter=0;exitX=0.5;exitY=0;exitDx=0;exitDy=0;" edge="1" parent="1">
          <mxGeometry width="50" height="50" relative="1" as="geometry">
            <mxPoint x="400" y="290" as="sourcePoint" />
            <mxPoint x="399.5" y="260" as="targetPoint" />
            <Array as="points">
              <mxPoint x="400" y="260" />
            </Array>
          </mxGeometry>
        </mxCell>
        <mxCell id="ZmkryA6pYVP38JDTjNkh-42" value="" style="endArrow=none;html=1;rounded=0;entryX=0.5;entryY=0.5;entryDx=0;entryDy=15;entryPerimeter=0;exitX=0.5;exitY=0;exitDx=0;exitDy=0;" edge="1" parent="1" target="ZmkryA6pYVP38JDTjNkh-41">
          <mxGeometry width="50" height="50" relative="1" as="geometry">
            <mxPoint x="399.5" y="220" as="sourcePoint" />
            <mxPoint x="399.5" y="190" as="targetPoint" />
          </mxGeometry>
        </mxCell>
        <mxCell id="ZmkryA6pYVP38JDTjNkh-41" value="Cоздание пустого массива особей Population" style="rounded=0;whiteSpace=wrap;html=1;" vertex="1" parent="1">
          <mxGeometry x="320" y="220" width="160" height="40" as="geometry" />
        </mxCell>
        <mxCell id="ZmkryA6pYVP38JDTjNkh-53" value="" style="endArrow=none;html=1;rounded=0;entryX=0.5;entryY=0.5;entryDx=0;entryDy=15;entryPerimeter=0;exitX=0.5;exitY=0;exitDx=0;exitDy=0;" edge="1" parent="1">
          <mxGeometry width="50" height="50" relative="1" as="geometry">
            <mxPoint x="399.5" y="430" as="sourcePoint" />
            <mxPoint x="399.5" y="400" as="targetPoint" />
          </mxGeometry>
        </mxCell>
        <mxCell id="ZmkryA6pYVP38JDTjNkh-54" value="" style="endArrow=none;html=1;rounded=0;entryX=0.5;entryY=0.5;entryDx=0;entryDy=15;entryPerimeter=0;exitX=0.5;exitY=0;exitDx=0;exitDy=0;" edge="1" parent="1">
          <mxGeometry width="50" height="50" relative="1" as="geometry">
            <mxPoint x="399.5" y="520" as="sourcePoint" />
            <mxPoint x="399.5" y="490" as="targetPoint" />
          </mxGeometry>
        </mxCell>
        <mxCell id="ZmkryA6pYVP38JDTjNkh-63" value="" style="endArrow=none;html=1;rounded=0;entryX=0.5;entryY=0.5;entryDx=0;entryDy=15;entryPerimeter=0;exitX=0.5;exitY=0;exitDx=0;exitDy=0;" edge="1" parent="1" target="ZmkryA6pYVP38JDTjNkh-64">
          <mxGeometry width="50" height="50" relative="1" as="geometry">
            <mxPoint x="399.5" y="360" as="sourcePoint" />
            <mxPoint x="399.5" y="330" as="targetPoint" />
          </mxGeometry>
        </mxCell>
        <mxCell id="ZmkryA6pYVP38JDTjNkh-64" value="Цикл пока i &amp;lt; N" style="shape=loopLimit;whiteSpace=wrap;html=1;" vertex="1" parent="1">
          <mxGeometry x="320" y="360" width="160" height="40" as="geometry" />
        </mxCell>
        <mxCell id="ZmkryA6pYVP38JDTjNkh-65" value="&lt;div&gt;i = 0&lt;br&gt;&lt;/div&gt;" style="rounded=0;whiteSpace=wrap;html=1;" vertex="1" parent="1">
          <mxGeometry x="320" y="290" width="160" height="40" as="geometry" />
        </mxCell>
        <mxCell id="ZmkryA6pYVP38JDTjNkh-73" value="" style="endArrow=none;html=1;rounded=0;entryX=0.5;entryY=0.5;entryDx=0;entryDy=15;entryPerimeter=0;exitX=0.5;exitY=0;exitDx=0;exitDy=0;" edge="1" parent="1">
          <mxGeometry width="50" height="50" relative="1" as="geometry">
            <mxPoint x="399.5" y="655" as="sourcePoint" />
            <mxPoint x="399.5" y="625" as="targetPoint" />
          </mxGeometry>
        </mxCell>
        <mxCell id="ZmkryA6pYVP38JDTjNkh-75" value="" style="endArrow=none;html=1;rounded=0;entryX=0.5;entryY=0.5;entryDx=0;entryDy=15;entryPerimeter=0;exitX=0.5;exitY=0;exitDx=0;exitDy=0;" edge="1" parent="1" target="ZmkryA6pYVP38JDTjNkh-76">
          <mxGeometry width="50" height="50" relative="1" as="geometry">
            <mxPoint x="399.5" y="585" as="sourcePoint" />
            <mxPoint x="399.5" y="555" as="targetPoint" />
          </mxGeometry>
        </mxCell>
        <mxCell id="ZmkryA6pYVP38JDTjNkh-76" value="Цикл j от 1 до i" style="shape=loopLimit;whiteSpace=wrap;html=1;" vertex="1" parent="1">
          <mxGeometry x="320" y="585" width="160" height="40" as="geometry" />
        </mxCell>
        <mxCell id="ZmkryA6pYVP38JDTjNkh-77" value="exists = false" style="rounded=0;whiteSpace=wrap;html=1;" vertex="1" parent="1">
          <mxGeometry x="320" y="515" width="160" height="40" as="geometry" />
        </mxCell>
        <mxCell id="ZmkryA6pYVP38JDTjNkh-78" value="Ind = Population[i]" style="rhombus;whiteSpace=wrap;html=1;" vertex="1" parent="1">
          <mxGeometry x="320" y="650" width="160" height="60" as="geometry" />
        </mxCell>
        <mxCell id="ZmkryA6pYVP38JDTjNkh-79" value="Генерация новой особи&amp;nbsp;&lt;div&gt;Ind = случайная перестановка IDs&lt;/div&gt;" style="rounded=0;whiteSpace=wrap;html=1;" vertex="1" parent="1">
          <mxGeometry x="320" y="430" width="160" height="60" as="geometry" />
        </mxCell>
        <mxCell id="ZmkryA6pYVP38JDTjNkh-80" value="exists = true" style="rounded=0;whiteSpace=wrap;html=1;" vertex="1" parent="1">
          <mxGeometry x="510" y="710" width="160" height="40" as="geometry" />
        </mxCell>
        <mxCell id="ZmkryA6pYVP38JDTjNkh-87" value="" style="endArrow=none;html=1;rounded=0;entryX=0.5;entryY=0.5;entryDx=0;entryDy=15;entryPerimeter=0;exitX=0.5;exitY=0;exitDx=0;exitDy=0;" edge="1" parent="1">
          <mxGeometry width="50" height="50" relative="1" as="geometry">
            <mxPoint x="400" y="860" as="sourcePoint" />
            <mxPoint x="400" y="830" as="targetPoint" />
          </mxGeometry>
        </mxCell>
        <mxCell id="ZmkryA6pYVP38JDTjNkh-92" value="j" style="shape=loopLimit;whiteSpace=wrap;html=1;direction=west;" vertex="1" parent="1">
          <mxGeometry x="320" y="790" width="160" height="40" as="geometry" />
        </mxCell>
        <mxCell id="ZmkryA6pYVP38JDTjNkh-93" value="i" style="shape=loopLimit;whiteSpace=wrap;html=1;direction=west;" vertex="1" parent="1">
          <mxGeometry x="320" y="1010" width="160" height="40" as="geometry" />
        </mxCell>
        <mxCell id="ZmkryA6pYVP38JDTjNkh-95" value="Population" style="shape=parallelogram;perimeter=parallelogramPerimeter;whiteSpace=wrap;html=1;dashed=0;" vertex="1" parent="1">
          <mxGeometry x="320" y="1080" width="160" height="40" as="geometry" />
        </mxCell>
        <mxCell id="ZmkryA6pYVP38JDTjNkh-97" value="Конец" style="html=1;dashed=0;whiteSpace=wrap;shape=mxgraph.dfd.start" vertex="1" parent="1">
          <mxGeometry x="320" y="1150" width="160" height="30" as="geometry" />
        </mxCell>
        <mxCell id="ZmkryA6pYVP38JDTjNkh-100" value="" style="endArrow=none;html=1;rounded=0;entryX=0.5;entryY=0.5;entryDx=0;entryDy=15;entryPerimeter=0;exitX=0.5;exitY=0;exitDx=0;exitDy=0;" edge="1" parent="1">
          <mxGeometry width="50" height="50" relative="1" as="geometry">
            <mxPoint x="399.5" y="1080" as="sourcePoint" />
            <mxPoint x="399.5" y="1050" as="targetPoint" />
          </mxGeometry>
        </mxCell>
        <mxCell id="ZmkryA6pYVP38JDTjNkh-101" value="" style="endArrow=none;html=1;rounded=0;entryX=0.5;entryY=0.5;entryDx=0;entryDy=15;entryPerimeter=0;exitX=0.5;exitY=0;exitDx=0;exitDy=0;" edge="1" parent="1">
          <mxGeometry width="50" height="50" relative="1" as="geometry">
            <mxPoint x="400" y="1150" as="sourcePoint" />
            <mxPoint x="400" y="1120" as="targetPoint" />
          </mxGeometry>
        </mxCell>
        <mxCell id="ZmkryA6pYVP38JDTjNkh-102" value="exists = false" style="rhombus;whiteSpace=wrap;html=1;" vertex="1" parent="1">
          <mxGeometry x="320" y="860" width="160" height="60" as="geometry" />
        </mxCell>
        <mxCell id="ZmkryA6pYVP38JDTjNkh-103" value="Добавить новую особь Ind&lt;div&gt;&amp;nbsp;в Population&amp;nbsp;&lt;div&gt;i += 1&lt;/div&gt;&lt;/div&gt;" style="rounded=0;whiteSpace=wrap;html=1;" vertex="1" parent="1">
          <mxGeometry x="510" y="910" width="160" height="50" as="geometry" />
        </mxCell>
        <mxCell id="ZmkryA6pYVP38JDTjNkh-107" value="" style="endArrow=none;html=1;rounded=0;entryX=0.5;entryY=0.5;entryDx=0;entryDy=15;entryPerimeter=0;exitX=0.5;exitY=0;exitDx=0;exitDy=0;" edge="1" parent="1">
          <mxGeometry width="50" height="50" relative="1" as="geometry">
            <mxPoint x="400" y="360" as="sourcePoint" />
            <mxPoint x="400" y="330" as="targetPoint" />
            <Array as="points" />
          </mxGeometry>
        </mxCell>
        <mxCell id="ZmkryA6pYVP38JDTjNkh-108" value="" style="endArrow=none;html=1;rounded=0;entryX=0.5;entryY=0.5;entryDx=0;entryDy=15;entryPerimeter=0;exitX=0.5;exitY=0;exitDx=0;exitDy=0;" edge="1" parent="1">
          <mxGeometry width="50" height="50" relative="1" as="geometry">
            <mxPoint x="399.5" y="585" as="sourcePoint" />
            <mxPoint x="399.5" y="555" as="targetPoint" />
          </mxGeometry>
        </mxCell>
        <mxCell id="ZmkryA6pYVP38JDTjNkh-109" value="" style="endArrow=none;html=1;rounded=0;entryX=1;entryY=0.5;entryDx=0;entryDy=0;exitX=0.5;exitY=0;exitDx=0;exitDy=0;" edge="1" parent="1" source="ZmkryA6pYVP38JDTjNkh-80" target="ZmkryA6pYVP38JDTjNkh-78">
          <mxGeometry width="50" height="50" relative="1" as="geometry">
            <mxPoint x="370" y="850" as="sourcePoint" />
            <mxPoint x="420" y="800" as="targetPoint" />
            <Array as="points">
              <mxPoint x="590" y="680" />
              <mxPoint x="480" y="680" />
            </Array>
          </mxGeometry>
        </mxCell>
        <mxCell id="ZmkryA6pYVP38JDTjNkh-110" value="" style="endArrow=none;html=1;rounded=0;entryX=0.5;entryY=1;entryDx=0;entryDy=0;exitX=0.5;exitY=1;exitDx=0;exitDy=0;" edge="1" parent="1" source="ZmkryA6pYVP38JDTjNkh-92" target="ZmkryA6pYVP38JDTjNkh-80">
          <mxGeometry width="50" height="50" relative="1" as="geometry">
            <mxPoint x="370" y="850" as="sourcePoint" />
            <mxPoint x="420" y="800" as="targetPoint" />
            <Array as="points">
              <mxPoint x="400" y="770" />
              <mxPoint x="590" y="770" />
            </Array>
          </mxGeometry>
        </mxCell>
        <mxCell id="ZmkryA6pYVP38JDTjNkh-111" value="да" style="text;html=1;align=center;verticalAlign=middle;whiteSpace=wrap;rounded=0;" vertex="1" parent="1">
          <mxGeometry x="470" y="650" width="60" height="30" as="geometry" />
        </mxCell>
        <mxCell id="ZmkryA6pYVP38JDTjNkh-112" value="" style="endArrow=none;html=1;rounded=0;entryX=0;entryY=0.5;entryDx=0;entryDy=0;" edge="1" parent="1" target="ZmkryA6pYVP38JDTjNkh-78">
          <mxGeometry width="50" height="50" relative="1" as="geometry">
            <mxPoint x="400" y="770" as="sourcePoint" />
            <mxPoint x="420" y="800" as="targetPoint" />
            <Array as="points">
              <mxPoint x="280" y="770" />
              <mxPoint x="280" y="680" />
            </Array>
          </mxGeometry>
        </mxCell>
        <mxCell id="ZmkryA6pYVP38JDTjNkh-114" value="" style="endArrow=none;html=1;rounded=0;entryX=1;entryY=0.5;entryDx=0;entryDy=0;" edge="1" parent="1">
          <mxGeometry width="50" height="50" relative="1" as="geometry">
            <mxPoint x="590" y="910" as="sourcePoint" />
            <mxPoint x="480" y="890" as="targetPoint" />
            <Array as="points">
              <mxPoint x="590" y="890" />
              <mxPoint x="480" y="890" />
            </Array>
          </mxGeometry>
        </mxCell>
        <mxCell id="ZmkryA6pYVP38JDTjNkh-115" value="" style="endArrow=none;html=1;rounded=0;entryX=0;entryY=0.5;entryDx=0;entryDy=0;" edge="1" parent="1">
          <mxGeometry width="50" height="50" relative="1" as="geometry">
            <mxPoint x="400" y="980" as="sourcePoint" />
            <mxPoint x="320" y="890" as="targetPoint" />
            <Array as="points">
              <mxPoint x="280" y="980" />
              <mxPoint x="280" y="890" />
            </Array>
          </mxGeometry>
        </mxCell>
        <mxCell id="ZmkryA6pYVP38JDTjNkh-116" value="" style="endArrow=none;html=1;rounded=0;entryX=0.5;entryY=1;entryDx=0;entryDy=0;exitX=0.5;exitY=1;exitDx=0;exitDy=0;" edge="1" parent="1" source="ZmkryA6pYVP38JDTjNkh-93">
          <mxGeometry width="50" height="50" relative="1" as="geometry">
            <mxPoint x="400" y="1000" as="sourcePoint" />
            <mxPoint x="590" y="960" as="targetPoint" />
            <Array as="points">
              <mxPoint x="400" y="980" />
              <mxPoint x="590" y="980" />
            </Array>
          </mxGeometry>
        </mxCell>
        <mxCell id="ZmkryA6pYVP38JDTjNkh-117" value="да" style="text;html=1;align=center;verticalAlign=middle;whiteSpace=wrap;rounded=0;" vertex="1" parent="1">
          <mxGeometry x="470" y="860" width="60" height="30" as="geometry" />
        </mxCell>
      </root>
    </mxGraphModel>
  </diagram>
</mxfile>
